<?xml version="1.0" encoding="UTF-8"?>
<!-- Generated by Pixelmator Pro 3.3.11 -->
<svg width="2651" height="780" viewBox="0 0 2651 780" xmlns="http://www.w3.org/2000/svg">
    <text id="Subabot" xml:space="preserve" x="1081" y="487" font-family="PT Mono" font-size="377" font-weight="700" fill="#203a43">Subabot</text>
    <path id="subabot-cover" fill="#203a43" stroke="none" d="M 488 0 C 514.965637 0 536.75 21.785156 536.75 48.75 L 536.75 146.25 L 719.5625 146.25 C 780.194519 146.25 829.25 195.304688 829.25 255.9375 L 829.25 670.3125 C 829.25 730.945313 780.194519 780 719.5625 780 L 256.4375 780 C 195.805481 780 146.75 730.945313 146.75 670.3125 L 146.75 255.9375 C 146.75 195.304688 195.805481 146.25 256.4375 146.25 L 439.25 146.25 L 439.25 48.75 C 439.25 21.785156 461.034363 0 488 0 Z M 317.375 585 C 303.969543 585 293 595.96875 293 609.375 C 293 622.78125 303.969543 633.75 317.375 633.75 L 366.125 633.75 C 379.530457 633.75 390.5 622.78125 390.5 609.375 C 390.5 595.96875 379.530457 585 366.125 585 L 317.375 585 Z M 463.625 585 C 450.219543 585 439.25 595.96875 439.25 609.375 C 439.25 622.78125 450.219543 633.75 463.625 633.75 L 512.375 633.75 C 525.780457 633.75 536.75 622.78125 536.75 609.375 C 536.75 595.96875 525.780457 585 512.375 585 L 463.625 585 Z M 609.875 585 C 596.469543 585 585.5 595.96875 585.5 609.375 C 585.5 622.78125 596.469543 633.75 609.875 633.75 L 658.625 633.75 C 672.030457 633.75 683 622.78125 683 609.375 C 683 595.96875 672.030457 585 658.625 585 L 609.875 585 Z M 402.6875 390 C 402.6875 356.345154 375.40448 329.0625 341.75 329.0625 C 308.09552 329.0625 280.8125 356.345154 280.8125 390 C 280.8125 423.654846 308.09552 450.9375 341.75 450.9375 C 375.40448 450.9375 402.6875 423.654846 402.6875 390 Z M 634.25 450.9375 C 667.90448 450.9375 695.1875 423.654846 695.1875 390 C 695.1875 356.345154 667.90448 329.0625 634.25 329.0625 C 600.59552 329.0625 573.3125 356.345154 573.3125 390 C 573.3125 423.654846 600.59552 450.9375 634.25 450.9375 Z M 73.625 341.25 L 98 341.25 L 98 633.75 L 73.625 633.75 C 33.253906 633.75 0.5 600.996094 0.5 560.625 L 0.5 414.375 C 0.5 374.003906 33.253906 341.25 73.625 341.25 Z M 902.375 341.25 C 942.746094 341.25 975.5 374.003906 975.5 414.375 L 975.5 560.625 C 975.5 600.996094 942.746094 633.75 902.375 633.75 L 878 633.75 L 878 341.25 L 902.375 341.25 Z"/>
</svg>
