<?xml version="1.0" encoding="UTF-8"?>
<!-- Generated by Pixelmator Pro 3.3.11 -->
<svg width="2951" height="1080" viewBox="0 0 2951 1080" xmlns="http://www.w3.org/2000/svg">
    <path id="Shape" fill="#203a43" fill-rule="evenodd" stroke="none" d="M 0 930 C -0 1012.842712 67.157288 1080 150 1080 L 2801 1080 C 2883.842773 1080 2951 1012.842712 2951 930 L 2951 150 C 2951 67.157288 2883.842773 0 2801 0 L 150 0 C 67.157288 0 0 67.157288 0 150 Z"/>
    <path id="subabot-cover" fill="#b0c4de" stroke="none" d="M 586 126 C 612.965637 126 634.75 147.785156 634.75 174.75 L 634.75 272.25 L 817.5625 272.25 C 878.194519 272.25 927.25 321.304688 927.25 381.9375 L 927.25 796.3125 C 927.25 856.945313 878.194519 906 817.5625 906 L 354.4375 906 C 293.805481 906 244.75 856.945313 244.75 796.3125 L 244.75 381.9375 C 244.75 321.304688 293.805481 272.25 354.4375 272.25 L 537.25 272.25 L 537.25 174.75 C 537.25 147.785156 559.034363 126 586 126 Z M 415.375 711 C 401.969543 711 391 721.96875 391 735.375 C 391 748.78125 401.969543 759.75 415.375 759.75 L 464.125 759.75 C 477.530457 759.75 488.5 748.78125 488.5 735.375 C 488.5 721.96875 477.530457 711 464.125 711 L 415.375 711 Z M 561.625 711 C 548.219543 711 537.25 721.96875 537.25 735.375 C 537.25 748.78125 548.219543 759.75 561.625 759.75 L 610.375 759.75 C 623.780457 759.75 634.75 748.78125 634.75 735.375 C 634.75 721.96875 623.780457 711 610.375 711 L 561.625 711 Z M 707.875 711 C 694.469543 711 683.5 721.96875 683.5 735.375 C 683.5 748.78125 694.469543 759.75 707.875 759.75 L 756.625 759.75 C 770.030457 759.75 781 748.78125 781 735.375 C 781 721.96875 770.030457 711 756.625 711 L 707.875 711 Z M 500.6875 516 C 500.6875 482.345154 473.40448 455.0625 439.75 455.0625 C 406.09552 455.0625 378.8125 482.345154 378.8125 516 C 378.8125 549.654846 406.09552 576.9375 439.75 576.9375 C 473.40448 576.9375 500.6875 549.654846 500.6875 516 Z M 732.25 576.9375 C 765.90448 576.9375 793.1875 549.654846 793.1875 516 C 793.1875 482.345154 765.90448 455.0625 732.25 455.0625 C 698.59552 455.0625 671.3125 482.345154 671.3125 516 C 671.3125 549.654846 698.59552 576.9375 732.25 576.9375 Z M 171.625 467.25 L 196 467.25 L 196 759.75 L 171.625 759.75 C 131.253906 759.75 98.5 726.996094 98.5 686.625 L 98.5 540.375 C 98.5 500.003906 131.253906 467.25 171.625 467.25 Z M 1000.375 467.25 C 1040.746094 467.25 1073.5 500.003906 1073.5 540.375 L 1073.5 686.625 C 1073.5 726.996094 1040.746094 759.75 1000.375 759.75 L 976 759.75 L 976 467.25 L 1000.375 467.25 Z"/>
    <text id="Subabot" xml:space="preserve" x="1179" y="672" font-family="PT Mono" font-size="397" font-weight="700" fill="#b0c4de">Subabot</text>
</svg>
